<svg width="163" height="41" viewBox="0 0 163 41" fill="none" xmlns="http://www.w3.org/2000/svg">
<rect y="0.5" width="40" height="40" rx="20" fill="#0E1422"/>
<path d="M24.4768 11.8485L18.2039 8.05509C17.6118 7.69292 16.9387 7.5015 16.2531 7.50031C14.2093 7.50031 12.3346 9.21225 12.3346 11.605V25.8073L24.4768 18.4669C26.9081 16.9947 26.9081 13.32 24.4768 11.8485ZM15.8483 18.948V11.3679L22.1162 15.1567L15.8483 18.948Z" fill="white"/>
<path d="M27.8488 33.4844C27.8488 33.5273 15.9907 33.466 15.9907 33.466L14.9432 33.3425C13.2466 33.144 11.9441 31.6233 12.0018 29.8346C12.0018 29.7917 12.0055 29.7519 12.008 29.7103C12.0546 28.9365 12.326 28.1961 12.7857 27.5885C12.9724 27.3461 13.2008 27.1425 13.459 26.9882L22.478 21.5725C24.3413 20.4535 25.893 20.062 26.6998 18.0341C26.9973 17.2757 27.1258 16.4562 27.0756 15.6379L27.0444 15.0865L27.965 20.4204C28.0829 21.3264 27.9012 22.2537 27.421 23.0169C27.1325 23.4785 26.7474 23.8653 26.295 24.1479L15.8294 29.3943C15.819 29.4006 15.8088 29.4074 15.7991 29.4149C15.5126 29.6293 15.6894 30.1069 16.0402 30.0867L24.7514 30.1403C26.4431 30.0417 27.8524 31.7112 27.8488 33.4844Z" fill="white"/>
<path d="M53.4 28V13.6H62.8V16.14H56.12V19.22H61.6V21.76H56.12V25.46H62.8V28H53.4ZM69.2569 28.3C68.1369 28.3 67.1769 28.05 66.3769 27.55C65.5769 27.05 64.9635 26.37 64.5369 25.51C64.1102 24.65 63.8969 23.68 63.8969 22.6C63.8969 21.5067 64.1169 20.53 64.5569 19.67C65.0035 18.81 65.6302 18.1333 66.4369 17.64C67.2435 17.1467 68.1969 16.9 69.2969 16.9C70.5702 16.9 71.6369 17.2233 72.4969 17.87C73.3635 18.51 73.9169 19.3867 74.1569 20.5L71.4369 21.22C71.2769 20.66 70.9969 20.2233 70.5969 19.91C70.2035 19.5967 69.7569 19.44 69.2569 19.44C68.6835 19.44 68.2135 19.58 67.8469 19.86C67.4802 20.1333 67.2102 20.51 67.0369 20.99C66.8635 21.4633 66.7769 22 66.7769 22.6C66.7769 23.54 66.9835 24.3033 67.3969 24.89C67.8169 25.47 68.4369 25.76 69.2569 25.76C69.8702 25.76 70.3369 25.62 70.6569 25.34C70.9769 25.06 71.2169 24.66 71.3769 24.14L74.1569 24.72C73.8502 25.8667 73.2702 26.75 72.4169 27.37C71.5635 27.99 70.5102 28.3 69.2569 28.3ZM80.0241 28.3C78.9374 28.3 77.9841 28.0567 77.1641 27.57C76.3441 27.0833 75.7041 26.4133 75.2441 25.56C74.7907 24.7 74.5641 23.7133 74.5641 22.6C74.5641 21.4733 74.7974 20.4833 75.2641 19.63C75.7307 18.77 76.3741 18.1 77.1941 17.62C78.0141 17.14 78.9574 16.9 80.0241 16.9C81.1107 16.9 82.0641 17.1433 82.8841 17.63C83.7107 18.1167 84.3541 18.79 84.8141 19.65C85.2741 20.5033 85.5041 21.4867 85.5041 22.6C85.5041 23.72 85.2707 24.71 84.8041 25.57C84.3441 26.4233 83.7007 27.0933 82.8741 27.58C82.0541 28.06 81.1041 28.3 80.0241 28.3ZM80.0241 25.76C80.8974 25.76 81.5474 25.4667 81.9741 24.88C82.4074 24.2867 82.6241 23.5267 82.6241 22.6C82.6241 21.64 82.4041 20.8733 81.9641 20.3C81.5307 19.7267 80.8841 19.44 80.0241 19.44C79.4307 19.44 78.9441 19.5733 78.5641 19.84C78.1841 20.1067 77.9007 20.4767 77.7141 20.95C77.5341 21.4233 77.4441 21.9733 77.4441 22.6C77.4441 23.5667 77.6607 24.3367 78.0941 24.91C78.5341 25.4767 79.1774 25.76 80.0241 25.76ZM100.003 28V21.62C100.003 20.9067 99.8331 20.3533 99.4931 19.96C99.1598 19.56 98.6965 19.36 98.1031 19.36C97.7231 19.36 97.3931 19.45 97.1131 19.63C96.8331 19.8033 96.6131 20.05 96.4531 20.37C96.2998 20.6833 96.2231 21.0467 96.2231 21.46L95.0831 20.7C95.0831 19.96 95.2565 19.3067 95.6031 18.74C95.9565 18.1733 96.4265 17.7333 97.0131 17.42C97.6065 17.1 98.2631 16.94 98.9831 16.94C100.216 16.94 101.146 17.3067 101.773 18.04C102.406 18.7667 102.723 19.72 102.723 20.9V28H100.003ZM86.9831 28V17.2H89.3831V20.78H89.7231V28H86.9831ZM93.5031 28V21.62C93.5031 20.9067 93.3331 20.3533 92.9931 19.96C92.6598 19.56 92.1965 19.36 91.6031 19.36C91.0365 19.36 90.5798 19.5567 90.2331 19.95C89.8931 20.3367 89.7231 20.84 89.7231 21.46L88.5831 20.66C88.5831 19.9533 88.7598 19.32 89.1131 18.76C89.4665 18.2 89.9398 17.7567 90.5331 17.43C91.1331 17.1033 91.8031 16.94 92.5431 16.94C93.3898 16.94 94.0831 17.12 94.6231 17.48C95.1698 17.84 95.5731 18.32 95.8331 18.92C96.0931 19.52 96.2231 20.18 96.2231 20.9V28H93.5031ZM117.623 28V21.62C117.623 20.9067 117.453 20.3533 117.113 19.96C116.78 19.56 116.317 19.36 115.723 19.36C115.343 19.36 115.013 19.45 114.733 19.63C114.453 19.8033 114.233 20.05 114.073 20.37C113.92 20.6833 113.843 21.0467 113.843 21.46L112.703 20.7C112.703 19.96 112.877 19.3067 113.223 18.74C113.577 18.1733 114.047 17.7333 114.633 17.42C115.227 17.1 115.883 16.94 116.603 16.94C117.837 16.94 118.767 17.3067 119.393 18.04C120.027 18.7667 120.343 19.72 120.343 20.9V28H117.623ZM104.603 28V17.2H107.003V20.78H107.343V28H104.603ZM111.123 28V21.62C111.123 20.9067 110.953 20.3533 110.613 19.96C110.28 19.56 109.817 19.36 109.223 19.36C108.657 19.36 108.2 19.5567 107.853 19.95C107.513 20.3367 107.343 20.84 107.343 21.46L106.203 20.66C106.203 19.9533 106.38 19.32 106.733 18.76C107.087 18.2 107.56 17.7567 108.153 17.43C108.753 17.1033 109.423 16.94 110.163 16.94C111.01 16.94 111.703 17.12 112.243 17.48C112.79 17.84 113.193 18.32 113.453 18.92C113.713 19.52 113.843 20.18 113.843 20.9V28H111.123ZM127.068 28.3C125.962 28.3 124.985 28.0633 124.138 27.59C123.298 27.11 122.638 26.4533 122.158 25.62C121.685 24.78 121.448 23.82 121.448 22.74C121.448 21.56 121.682 20.5333 122.148 19.66C122.615 18.7867 123.258 18.11 124.078 17.63C124.898 17.1433 125.842 16.9 126.908 16.9C128.042 16.9 129.005 17.1667 129.798 17.7C130.592 18.2333 131.178 18.9833 131.558 19.95C131.938 20.9167 132.072 22.0533 131.958 23.36H129.268V22.36C129.268 21.26 129.092 20.47 128.738 19.99C128.392 19.5033 127.822 19.26 127.028 19.26C126.102 19.26 125.418 19.5433 124.978 20.11C124.545 20.67 124.328 21.5 124.328 22.6C124.328 23.6067 124.545 24.3867 124.978 24.94C125.418 25.4867 126.062 25.76 126.908 25.76C127.442 25.76 127.898 25.6433 128.278 25.41C128.658 25.1767 128.948 24.84 129.148 24.4L131.868 25.18C131.462 26.1667 130.818 26.9333 129.938 27.48C129.065 28.0267 128.108 28.3 127.068 28.3ZM123.488 23.36V21.34H130.648V23.36H123.488ZM133.516 28V17.2H135.916V19.84L135.656 19.5C135.796 19.1267 135.983 18.7867 136.216 18.48C136.45 18.1733 136.736 17.92 137.076 17.72C137.336 17.56 137.62 17.4367 137.926 17.35C138.233 17.2567 138.55 17.2 138.876 17.18C139.203 17.1533 139.53 17.16 139.856 17.2V19.74C139.556 19.6467 139.206 19.6167 138.806 19.65C138.413 19.6767 138.056 19.7667 137.736 19.92C137.416 20.0667 137.146 20.2633 136.926 20.51C136.706 20.75 136.54 21.0367 136.426 21.37C136.313 21.6967 136.256 22.0667 136.256 22.48V28H133.516ZM145.623 28.3C144.503 28.3 143.543 28.05 142.743 27.55C141.943 27.05 141.33 26.37 140.903 25.51C140.477 24.65 140.263 23.68 140.263 22.6C140.263 21.5067 140.483 20.53 140.923 19.67C141.37 18.81 141.997 18.1333 142.803 17.64C143.61 17.1467 144.563 16.9 145.663 16.9C146.937 16.9 148.003 17.2233 148.863 17.87C149.73 18.51 150.283 19.3867 150.523 20.5L147.803 21.22C147.643 20.66 147.363 20.2233 146.963 19.91C146.57 19.5967 146.123 19.44 145.623 19.44C145.05 19.44 144.58 19.58 144.213 19.86C143.847 20.1333 143.577 20.51 143.403 20.99C143.23 21.4633 143.143 22 143.143 22.6C143.143 23.54 143.35 24.3033 143.763 24.89C144.183 25.47 144.803 25.76 145.623 25.76C146.237 25.76 146.703 25.62 147.023 25.34C147.343 25.06 147.583 24.66 147.743 24.14L150.523 24.72C150.217 25.8667 149.637 26.75 148.783 27.37C147.93 27.99 146.877 28.3 145.623 28.3ZM156.55 28.3C155.444 28.3 154.467 28.0633 153.62 27.59C152.78 27.11 152.12 26.4533 151.64 25.62C151.167 24.78 150.93 23.82 150.93 22.74C150.93 21.56 151.164 20.5333 151.63 19.66C152.097 18.7867 152.74 18.11 153.56 17.63C154.38 17.1433 155.324 16.9 156.39 16.9C157.524 16.9 158.487 17.1667 159.28 17.7C160.074 18.2333 160.66 18.9833 161.04 19.95C161.42 20.9167 161.554 22.0533 161.44 23.36H158.75V22.36C158.75 21.26 158.574 20.47 158.22 19.99C157.874 19.5033 157.304 19.26 156.51 19.26C155.584 19.26 154.9 19.5433 154.46 20.11C154.027 20.67 153.81 21.5 153.81 22.6C153.81 23.6067 154.027 24.3867 154.46 24.94C154.9 25.4867 155.544 25.76 156.39 25.76C156.924 25.76 157.38 25.6433 157.76 25.41C158.14 25.1767 158.43 24.84 158.63 24.4L161.35 25.18C160.944 26.1667 160.3 26.9333 159.42 27.48C158.547 28.0267 157.59 28.3 156.55 28.3ZM152.97 23.36V21.34H160.13V23.36H152.97Z" fill="#0E1422"/>
</svg>
